<svg width="12" height="13" viewBox="0 0 12 13" fill="none" xmlns="http://www.w3.org/2000/svg">
<g clip-path="url(#clip0_9_124)">
<path d="M9.33353 6.03176L3.99338 0.691706C3.86987 0.568097 3.70499 0.5 3.52919 0.5C3.35339 0.5 3.18851 0.568097 3.065 0.691706L2.67173 1.08487C2.41583 1.34107 2.41583 1.75745 2.67173 2.01326L7.15599 6.49751L2.66676 10.9867C2.54325 11.1104 2.47505 11.2751 2.47505 11.4508C2.47505 11.6267 2.54325 11.7915 2.66676 11.9152L3.06002 12.3083C3.18363 12.4319 3.34841 12.5 3.52421 12.5C3.70002 12.5 3.86489 12.4319 3.98841 12.3083L9.33353 6.96336C9.45734 6.83936 9.52534 6.6738 9.52495 6.49781C9.52534 6.32112 9.45734 6.15566 9.33353 6.03176Z" fill="white"/>
</g>
<defs>
<clipPath id="clip0_9_124">
<rect width="12" height="12" fill="white" transform="translate(0 0.5)"/>
</clipPath>
</defs>
</svg>
