<svg width="70" height="70" viewBox="0 0 70 70" fill="none" xmlns="http://www.w3.org/2000/svg">
<path d="M39.6662 65.3284C53.8404 65.3284 65.3309 53.8379 65.3309 39.6636C65.3309 25.4894 53.8404 13.9989 39.6662 13.9989C25.4919 13.9989 14.0014 25.4894 14.0014 39.6636C14.0175 53.8312 25.4985 65.3123 39.6662 65.3284ZM19.8343 38.4971H16.3941C17.0022 26.5494 26.5519 16.9996 38.4996 16.3916V19.8318C38.4996 20.476 39.0219 20.9984 39.6662 20.9984C40.3104 20.9984 40.8328 20.476 40.8328 19.8318V16.3916C52.7804 16.9996 62.3302 26.5494 62.9383 38.4971H58.3314C57.6872 38.4971 57.1649 39.0194 57.1649 39.6636C57.1649 40.3079 57.6872 40.8302 58.3314 40.8302H62.9383C62.3302 52.7777 52.7804 62.3277 40.8328 62.9357V59.4955C40.8328 58.8512 40.3104 58.3289 39.6662 58.3289C39.0219 58.3289 38.4996 58.8512 38.4996 59.4955V62.9357C26.5521 62.3277 17.0022 52.7779 16.3941 40.8302H19.8343C20.4786 40.8302 21.0009 40.3079 21.0009 39.6636C21.0009 39.0194 20.4786 38.4971 19.8343 38.4971Z" fill="white"/>
<path d="M65.9317 24.5183C65.5839 23.9157 65.2154 23.3255 64.8269 22.7483L67.7072 19.868C68.1626 19.4125 68.1626 18.674 67.7072 18.2185L61.1161 11.6273C60.6605 11.1719 59.9221 11.1719 59.4665 11.6273L56.5816 14.5029C51.915 11.3523 46.4594 9.57134 40.8327 9.3618V2.33316H48.9988C49.643 2.33316 50.1654 1.81082 50.1654 1.16658C50.1654 0.522336 49.643 0 48.9988 0H30.3335C29.6893 0 29.167 0.522336 29.167 1.16658C29.167 1.81082 29.6893 2.33316 30.3335 2.33316H38.4996V9.3723C28.0954 9.76952 18.624 15.4814 13.4181 24.4982H7.00195C6.3577 24.4982 5.83537 25.0205 5.83537 25.6647C5.83537 26.309 6.3577 26.8313 7.00195 26.8313H14.0014C14.0318 26.8313 14.0574 26.8162 14.0877 26.8138C14.5082 26.8192 14.8981 26.5958 15.1062 26.2305C22.5284 12.6656 39.5418 7.68571 53.1069 15.1078C66.672 22.5299 71.6516 39.5435 64.2295 53.1085C56.8073 66.6735 39.7939 71.6533 26.2288 64.2313C21.5345 61.6628 17.6745 57.8028 15.106 53.1085C14.9 52.7418 14.5106 52.516 14.0899 52.5194C14.0596 52.5194 14.0328 52.5019 14.0013 52.5019H7.0018C6.35756 52.5019 5.83522 53.0242 5.83522 53.6685C5.83522 54.3127 6.35756 54.8351 7.0018 54.8351H13.418C21.7898 69.3362 40.332 74.3053 54.8331 65.9334C69.3345 57.5616 74.3034 39.0194 65.9317 24.5183ZM58.4879 15.9048L60.2911 14.1016L65.2328 19.0432L63.4269 20.8491C61.9745 19.0182 60.3174 17.3593 58.4879 15.9048Z" fill="white"/>
<path d="M11.6683 39.6636C11.6683 39.0194 11.1459 38.4971 10.5017 38.4971H1.16907C0.524823 38.4971 0.00248718 39.0194 0.00248718 39.6636C0.00248718 40.3079 0.524823 40.8302 1.16907 40.8302H10.5017C11.1459 40.8302 11.6683 40.3079 11.6683 39.6636Z" fill="white"/>
<path d="M3.50223 33.8308H11.6683C12.3125 33.8308 12.8349 33.3085 12.8349 32.6643C12.8349 32.02 12.3125 31.4977 11.6683 31.4977H3.50223C2.85798 31.4977 2.33565 32.02 2.33565 32.6643C2.33565 33.3085 2.85784 33.8308 3.50223 33.8308Z" fill="white"/>
<path d="M12.8349 46.6632C12.8349 46.0189 12.3125 45.4966 11.6683 45.4966H3.50223C2.85798 45.4966 2.33565 46.0189 2.33565 46.6632C2.33565 47.3074 2.85798 47.8297 3.50223 47.8297H11.6683C12.3125 47.8297 12.8349 47.3074 12.8349 46.6632Z" fill="white"/>
<path d="M36.508 47.488C36.9636 47.9434 37.702 47.9434 38.1576 47.488L54.373 31.2725C54.8207 30.8091 54.8079 30.0707 54.3444 29.623C53.8924 29.1864 53.1757 29.1864 52.7235 29.623L37.3328 45.0137L30.3916 38.0725C29.9282 37.625 29.1896 37.6377 28.7421 38.1011C28.3055 38.5531 28.3055 39.2699 28.7421 39.7221L36.508 47.488Z" fill="white"/>
</svg>
